<?xml version="1.0" encoding="iso-8859-1"?>
<!-- Uploaded to: SVG Repo, www.svgrepo.com, Generator: SVG Repo Mixer Tools -->
<svg fill="#000000" height="800px" width="800px" version="1.1" id="Layer_1" xmlns="http://www.w3.org/2000/svg" xmlns:xlink="http://www.w3.org/1999/xlink" 
	 viewBox="0 0 512 512" xml:space="preserve">
<g>
	<g>
		<g>
			<path d="M234.667,318.475V147.36c-20.992,8.171-42.368,15.488-63.936,21.909C172.075,225.653,194.667,278.453,234.667,318.475z"
				/>
			<path d="M452.181,64.405l-13.12-2.624C378.816,49.728,320.448,29.696,265.536,2.24c-5.995-2.987-13.077-2.987-19.072,0
				c-54.912,27.456-113.28,47.488-173.525,59.541l-13.12,2.624c-9.963,2.005-17.152,10.752-17.152,20.928v78.549
				c0,92.629,36.053,179.691,101.547,245.163l96.704,96.704c4.16,4.16,9.621,6.251,15.083,6.251c5.461,0,10.923-2.091,15.083-6.251
				l96.704-96.704c65.493-65.472,101.547-152.533,101.547-245.163V85.333C469.333,75.157,462.144,66.411,452.181,64.405z
				 M277.333,369.984c0,8.619-5.205,16.405-13.163,19.712c-2.645,1.088-5.419,1.621-8.171,1.621c-5.547,0-11.008-2.176-15.083-6.251
				l-36.352-36.373C155.179,299.349,128,233.728,128,163.883v-10.688c0-9.6,6.421-18.005,15.659-20.544
				c35.307-9.749,70.208-22.08,103.829-36.715c6.592-2.859,14.208-2.219,20.203,1.707c6.016,3.947,9.643,10.667,9.643,17.856
				V369.984z"/>
		</g>
	</g>
</g>
</svg>